<svg width="32" height="64" viewBox="0 0 32 64" fill="none" xmlns="http://www.w3.org/2000/svg">
    <path d="M16 18.35C16.5171 18.35 17.0131 18.5554 17.3788 18.9211C17.7445 19.2868 17.95 19.7828 17.95 20.3V40.0457C19.7882 40.5203 21.3901 41.649 22.4556 43.2203C23.5212 44.7916 23.977 46.6975 23.7378 48.5809C23.4986 50.4642 22.5807 52.1956 21.1562 53.4506C19.7317 54.7056 17.8984 55.398 16 55.398C14.1015 55.398 12.2682 54.7056 10.8437 53.4506C9.41923 52.1956 8.50136 50.4642 8.26214 48.5809C8.02293 46.6975 8.47879 44.7916 9.5443 43.2203C10.6098 41.649 12.2118 40.5203 14.05 40.0457V20.3C14.05 19.7828 14.2554 19.2868 14.6211 18.9211C14.9868 18.5554 15.4828 18.35 16 18.35ZM16 0.800003C12.8969 0.800003 9.921 2.03268 7.72682 4.22685C5.53265 6.42103 4.29997 9.39697 4.29997 12.5V37.2806C2.31422 39.5322 1.02035 42.309 0.573636 45.2778C0.12692 48.2466 0.546331 51.2812 1.78154 54.0175C3.01675 56.7538 5.01529 59.0755 7.53733 60.7041C10.0594 62.3328 12.9978 63.199 16 63.199C19.0022 63.199 21.9406 62.3328 24.4626 60.7041C26.9847 59.0755 28.9832 56.7538 30.2184 54.0175C31.4536 51.2812 31.873 48.2466 31.4263 45.2778C30.9796 42.309 29.6857 39.5322 27.7 37.2806V12.5C27.7 9.39697 26.4673 6.42103 24.2731 4.22685C22.0789 2.03268 19.103 0.800003 16 0.800003ZM16 4.7C18.0687 4.7 20.0526 5.52179 21.5154 6.98457C22.9782 8.44735 23.8 10.4313 23.8 12.5V38.8445L24.3577 39.41C25.9699 41.0557 27.0604 43.1407 27.4924 45.4036C27.9244 47.6666 27.6788 50.0067 26.7862 52.1306C25.8937 54.2545 24.394 56.0676 22.4751 57.3426C20.5563 58.6176 18.3038 59.2977 16 59.2977C13.6962 59.2977 11.4436 58.6176 9.52481 57.3426C7.60598 56.0676 6.10627 54.2545 5.21372 52.1306C4.32117 50.0067 4.07551 47.6666 4.50754 45.4036C4.93957 43.1407 6.03006 41.0557 7.64227 39.41L8.19997 38.8445V12.5C8.19997 10.4313 9.02176 8.44735 10.4845 6.98457C11.9473 5.52179 13.9313 4.7 16 4.7Z"
          fill="#F9F9F9"/>
</svg>